<?xml version="1.0" encoding="UTF-8"?>
<svg id="Layer_1" xmlns="http://www.w3.org/2000/svg" version="1.1" viewBox="0 0 1920 1080">
  <!-- Generator: Adobe Illustrator 29.3.1, SVG Export Plug-In . SVG Version: 2.1.0 Build 151)  -->
  <defs>
    <style>
      .st0 {
        fill: #fff;
      }
    </style>
  </defs>
  <g>
    <path class="st0" d="M880.86,551.55c20.3,12.12,41.24,24.63,41.24,50.65,0,28.48-24.98,47.59-62.17,47.59-18.67,0-37-4.43-46.75-11.33l-.69-.44-.1-.89c-.94-13.7-1.43-28.13-1.43-43.06v-1.82h6.5l.54.99c11.68,23.2,25.87,47.94,46.36,47.94,14.04,0,23.11-9.95,23.11-25.42,0-20.2-16.55-30.05-34.24-40.55-19.36-11.53-39.41-23.45-39.41-50.35,0-28.28,22.37-47.3,55.67-47.3,14.93,0,29.22,3.74,42.37,11.18l.89.54.05.99c.79,14.04.69,28.48.49,40.69v1.82h-6.36l-.54-.89c-19.21-30.89-29.07-45.72-44.34-45.72-11.73,0-18.67,8.03-18.67,21.43,0,21.48,18.13,32.37,37.39,43.85l.1.1Z"/>
    <path class="st0" d="M1062.88,640.34v6.9h-1.82c-19.36,0-31.14.59-40.74,2.07l-1.58.2-.44-1.53c-1.38-4.73-2.86-10.44-2.86-17l-.05-2.07-1.13,1.77c-8.08,12.81-19.61,19.31-34.29,19.31-21.33,0-33.11-14.14-33.11-39.86v-47.3c0-17.93-6.95-22.37-14.44-24.53l-1.38-.39v-6.75h1.87c12.71,0,29.02-.25,42.81-2.27l2.12-.35v77.64c0,20.89,4.19,31.48,12.36,31.48,9.81,0,23.11-15.22,23.35-30.84v-41.43c0-16.5-4.53-25.37-13.89-27.05l-1.48-.3v-6.9h1.82c18.03,0,31.88-.74,42.37-2.27l2.17-.35v75.08c0,23.5,5.03,34.39,16.85,36.41l1.48.3Z"/>
    <path class="st0" d="M1174.47,541.12l-.15.74c-2.61,11.28-5.42,21.18-9.16,32.07l-.44,1.28h-6.5l-.35-1.43c-3.74-16.26-11.09-26.31-19.16-26.31-9.95,0-18.67,15.12-18.67,32.37v28.23c0,20.4,5.03,27.89,21.48,32.02l1.38.34v6.9l-1.97-.15c-10.79-.59-21.63-.89-34.14-.89s-23.6.3-34.14.89l-1.97.15v-6.6l1.03-.54c10.64-5.57,17.64-10.49,17.64-27.49v-46.85c0-17.19-5.12-25.42-17.14-27.49l-1.53-.3v-6.9h1.87c15.47,0,33.06-.25,46.11-2.07l2.07-.3v9.56c0,2.76-.1,5.86-.3,8.97l-.15,2.32,1.28-1.97c7.83-12.12,19.95-19.95,30.89-19.95,8.87,0,17.14,4.88,21.68,12.76l.35.64Z"/>
    <path class="st0" d="M1231.46,645.32c5.97,3.05,12.86,4.68,20.06,4.68,26.35,0,54.78-20.25,54.78-64.79,0-39.71-22.86-57.49-45.47-57.49-10.79,0-20.89,4.13-28.38,11.67l-1.13,1.18.05-1.62c.09-.84.14-1.63.14-2.46v-7.89l-2.17.3c-13.3,1.87-29.46,2.07-46.6,2.26l-1.82.05v6.8l1.42.3c11.78,2.46,17.2,11.23,17.2,27.54v107.7c0,15.02-6.65,20.74-17.44,25.12l-1.18.45v6.65l5.02-.15c10.79-.45,20.94-.84,31.33-.84,11.53,0,23.16.49,34.44.94l1.88.05v-6.9l-1.43-.3c-14.54-3.4-21.58-13.1-21.58-29.7v-24l.88.45ZM1230.58,557.28c4.58-12.37,14.58-17.99,21.87-17.99,12.07,0,18.18,16.41,18.18,48.73,0,35.42-7.09,53.4-21.18,53.4-17.05,0-18.87-24.63-18.87-35.22v-48.92Z"/>
    <path class="st0" d="M1420.85,541.12l-.15.74c-2.46,10.89-5.32,20.79-9.16,32.12l-.39,1.23h-6.55l-.35-1.43c-3.7-16.26-11.04-26.31-19.16-26.31-9.95,0-18.62,15.12-18.62,32.37v28.23c0,20.4,4.98,27.89,21.43,32.02l1.38.34v6.9l-1.92-.15c-10.84-.59-21.73-.89-34.19-.89s-23.6.3-34.14.89l-1.97.15v-6.6l1.03-.54c10.64-5.57,17.59-10.49,17.59-27.49v-46.85c0-17.19-5.07-25.42-17.1-27.49l-1.53-.3v-6.9h1.87c15.47,0,33.06-.25,46.11-2.07l2.07-.3v9.56c0,2.76-.1,5.86-.25,8.97l-.15,2.32,1.23-1.97c7.88-12.12,20.05-19.95,30.94-19.95,8.82,0,17.1,4.88,21.63,12.76l.35.64Z"/>
    <g>
      <path class="st0" d="M1494.85,640.44v6.9l-1.92-.15c-9.51-.59-19.9-.89-31.83-.89s-22.27.3-32.02.89l-2.02.15v-6.9l1.43-.34c4.04-1.04,17.24-6.01,17.24-27.39v-46.61c0-15.22-6.26-25.32-17.19-27.79l-1.48-.3v-6.85h1.87c12.17,0,29.95-.39,45.72-2.27l2.07-.25v84.05c0,14.48,6.26,24.73,16.75,27.39l1.38.34Z"/>
      <path class="st0" d="M1476.72,495c0,9.8-8.08,17.74-17.93,17.74s-18.18-7.78-18.18-17.74,8.18-17.44,18.18-17.44,17.93,7.83,17.93,17.44Z"/>
    </g>
    <path class="st0" d="M1590.72,613.64c0,22.66-17.34,36.16-46.36,36.16-11.82,0-27.74-2.56-37.05-9.71l-.69-.59v-.84c-.25-9.9-.05-20.05.64-30.2l.2-1.77h6.26l.54.94c12.51,22.91,23.3,34.04,33.11,34.04,3.65,0,6.6-1.13,8.82-3.4,2.76-2.81,4.19-7.29,4.04-12.66-.44-15.12-12.02-21.48-24.39-28.23-12.81-7.14-27.34-15.17-27.34-34.78,0-23.84,21.33-34.68,41.19-34.68,9.36,0,23.99,2.32,34.34,8.92l.84.54v1.03c-.25,11.82-.84,21.09-1.82,30l-.2,1.67h-6.31l-.49-.99c-12.27-22.22-22.27-33.06-30.55-33.06-7.39,0-10.05,7.09-10.05,13.75,0,14.14,11.38,19.9,24.58,26.65,14.39,7.29,30.69,15.57,30.69,37.2Z"/>
    <path class="st0" d="M1700.83,610.53c-9.21,26.26-27.94,28.33-33.45,28.33-18.67,0-27.05-14.68-27.05-47.59v-5.12h71.34l-.05-1.83c-.35-35.47-19.07-56.6-50.06-56.6-33.45,0-55.96,24.73-55.96,61.48,0,41.78,28.92,60.8,55.72,60.8,23,0,42.17-14.88,47.74-37.05l.39-1.73-8.03-2.36-.59,1.67ZM1640.48,576.44c1.03-20.25,7.34-40.64,18.96-40.64,10.06,0,16.21,14.82,17,40.64v.64h-36.01l.05-.64Z"/>
    <path class="st0" d="M1808.63,613.64c0,22.66-17.34,36.16-46.41,36.16-11.78,0-27.69-2.56-37-9.71l-.74-.59v-.84c-.2-9.95,0-20.1.69-30.2l.15-1.77h6.31l.54.94c12.51,22.91,23.3,34.04,33.11,34.04,3.65,0,6.6-1.13,8.82-3.4,2.76-2.81,4.19-7.29,3.99-12.66-.44-15.08-11.97-21.48-24.24-28.23-12.86-7.04-27.49-15.12-27.49-34.78,0-23.84,21.38-34.68,41.24-34.68,9.36,0,23.99,2.32,34.34,8.92l.84.54v1.03c-.25,11.82-.84,21.09-1.82,30l-.25,1.67h-6.21l-.54-.99c-12.12-21.92-22.37-33.06-30.55-33.06-7.39,0-10,7.09-10,13.75,0,14.14,11.33,19.9,24.53,26.65,14.39,7.29,30.69,15.57,30.69,37.2Z"/>
  </g>
  <g>
    <path class="st0" d="M435.18,537.93h24.47l1.17-5.36h-24.01l8.15-37.99h-3.72c-10.72,21.91-28.67,37.99-45.22,41.25l-.7,3.26h16.09l-16.32,76.91c-.93,4.89-1.4,10.02-1.4,13.28,0,12.82,5.83,19.35,18.42,19.35,11.65,0,24.7-7.93,34.25-22.38l-3.73-1.86c-6.98,8.86-16.08,15.85-22.6,15.85-3.27,0-4.43-2.33-4.43-6.53s1.4-10.95,3.03-18.64l16.55-77.14Z"/>
    <path class="st0" d="M551.47,621.83c0-3.03.47-6.06,1.4-10.72l16.31-82.51c-11.88,3.03-25.63,5.83-35.42,6.53l-.7,3.49c6.29,1.87,9.09,6.3,9.09,14.69,0,4.66-.7,10.95-2.56,18.64l-5.13,24.01c-8.16,29.36-25.4,44.98-36.83,44.98-6.29,0-9.32-4.2-9.32-13.06,0-3.72.47-8.85,1.87-14.91l16.78-84.37c-12.59,3.27-26.8,6.06-36.59,6.99l-.94,3.27c7.7,1.4,10.49,7.46,10.49,16.08,0,4.89-.93,9.55-2.09,14.92l-8.4,37.28c-1.16,5.83-2.09,10.26-2.09,15.85,0,16.55,8.39,24.94,24.7,24.94,15.15,0,29.83-10.49,40.09-31.7-1.63,5.13-2.33,10.26-2.33,14.92,0,6.76,1.16,12.58,3.26,17.71,9.55-4.2,22.37-9.32,32.39-12.35l-.93-3.26c-9.09.69-13.05-2.8-13.05-11.42Z"/>
    <path class="st0" d="M662.17,529.54c-12.12,0-28.2,12.12-38.46,32.62,2.57-7.69,4.43-13.98,5.83-20.97l2.33-12.59c-12.35,3.27-27.5,6.06-38.45,6.99l-.94,3.5c8.16.47,11.19,6.76,11.19,15.85,0,4.19-.7,10.02-1.63,14.22l-8.39,38.68c-4.66,21.21-12.82,30.53-21.44,34.03l-.93,3.49c7.69-.93,16.54-1.4,25.87-1.4s18.87.47,27.96,1.4l.94-3.49c-10.26-2.33-13.52-7.93-13.52-16.55,0-6.52,1.16-11.88,2.79-19.58l5.36-24.47c3.97-19.81,19.58-37.98,29.84-37.98,8.39,0,13.05,10.95,13.05,27.73h3.49c4.66-9.56,9.56-21.68,12.35-30.53-2.33-5.83-9.55-10.95-17.24-10.95Z"/>
    <path class="st0" d="M777.06,553.54c0-13.52-10.95-24-32.16-24-42.88,0-66.42,42.18-66.42,75.51,0,28.89,18.88,42.88,39.85,42.88s38.46-13.29,47.78-34.96l-4.66-1.63c-10.96,21.91-27.03,29.36-39.62,29.36s-18.88-10.25-18.88-28.43c0-5.13.7-11.89,1.87-19.11,45.91-2.33,72.24-15.85,72.24-39.62ZM741.87,534.2c6.99,0,10.02,4.42,10.02,13.75,0,23.77-15.61,37.52-45.91,40.08,5.13-24.94,17.48-53.83,35.89-53.83Z"/>
    <path class="st0" d="M356.17,621.81c0-3.01.44-6.06,1.38-10.7l16.3-82.52c-11.87,3.01-25.62,5.82-35.42,6.51l-.69,3.49c6.31,1.88,9.11,6.31,9.11,14.68,0,4.69-.73,10.99-2.56,18.68l-5.12,23.99c-8.18,29.36-25.42,44.98-36.85,44.98-6.26,0-9.31-4.19-9.31-13.05,0-3.75.44-8.87,1.87-14.93l12.61-63.46.15-.69.24-1.18.05-.39,1.09-5.62.19-.89.15-.74.2-1.03,2.07-10.35c-6.68,1.73-13.82,3.32-20.51,4.58-.03.01-.06.01-.09.02-14.01,2.43-24.37-1.09-28.17-2.7-4.04-1.88-8.03-4.01-11.93-6.38l-1.08-.64,1.23-.59c.2-.1,2.22-.94,5.07-2.27,4.14-1.92,10.15-4.93,15.23-8.23l.98-.59c5.77-3.54,11.33-7.44,16.56-11.67,14.23-11.68,24.38-24.49,30.2-38.09,6.01-14.04,8.57-30.54,7.44-47.64-.59-9.8-4.88-41.87-33.36-41.87-30.89,0-56.95,27.83-63.45,67.74l-9.56,55.91-.94-1.18c-5.71-7.04-11.08-14.58-16.25-21.87l-1.09-1.48c-10-14.48-26.21-32.07-46.75-33.7-20.4-3.2-37.79,13.8-42.27,31.43-.3,1.14-2.66,10.2-.84,19.76,4.24,24.39,27.88,41.29,48.08,46.66,15.62,4.48,33.21,4.48,52.37.04l1.04-.19-.25,1.03-19.21,92.23c-6.8,41.93-17.98,64.05-32.47,64.05-10.3,0-20.44-11.04-30.1-32.82l-3.84.89c1.28,18.33,2.8,33.11,4.82,46.46,46.66-.89,79.37-33.45,89.72-89.47l19.07-88.78.83.54s.08.06.23.16c1.3.91,7.84,5.39,16.15,9.13h.02s.13.06.27.12c2.06.84,14.53,5.74,23.8,4.65l.68,2.21c.41,1.21.91,2.9,1.06,4.3.01.03.01.07.01.1.21,1.41.3,2.93.3,4.51,0,4.88-.94,9.51-2.12,14.88l-8.37,37.29c-1.19,5.82-2.12,10.25-2.12,15.87,0,16.55,8.42,24.93,24.73,24.93,15.13,0,29.81-10.5,40.05-31.68-1.62,5.12-2.31,10.25-2.31,14.88,0,6.8,1.18,12.61,3.25,17.73,9.56-4.18,22.37-9.31,32.42-12.36l-.94-3.25c-9.11.69-13.05-2.81-13.05-11.43ZM216.54,517.7l-.39.15c-11.63,3.55-22.32,5.32-32.32,5.32-6.8,0-13.25-.83-19.51-2.46-10.25-2.86-28.52-10.3-35.96-28.03-5.72-13.9-.35-31.39,11.97-38.92,23.79-12.02,46.06,15.91,52.37,24.78,7.59,10.2,15.76,20.94,24.98,30.74l.24.25-1.38,8.17ZM245.27,506.52l.34-1.62,9.07-50.9c2.95-18.08,6.35-37.29,12.66-55.52,1.57-4.63,3.59-9.85,7.29-13.99,3.99-4.49,9.51-6.65,14.53-5.72,6.41,1.28,10.45,7.29,12.76,12.12,5.32,11.68,6.36,26.21,2.86,40.99-4.33,18.13-14.29,36.95-27.29,51.73-1.88,2.12-3.7,4.04-5.52,5.86l-.2.15c-.24.25-.49.5-.74.69-1.57,1.43-3.35,2.91-5.56,4.53-6.7,4.98-14,8.77-18.97,11.09l-1.23.59Z"/>
  </g>
</svg>