<svg width="66" height="66" viewBox="0 0 66 66" fill="none" xmlns="http://www.w3.org/2000/svg">
<g id="Group 859">
<path id="Vector" d="M41.4544 15.742L38.2345 18.962C38.047 19.1445 37.796 19.247 37.5345 19.248C37.2795 19.248 37.0324 19.149 36.8354 18.962C36.744 18.8709 36.6714 18.7627 36.6219 18.6435C36.5724 18.5243 36.5469 18.3965 36.5469 18.2675C36.5469 18.1384 36.5724 18.0106 36.6219 17.8915C36.6714 17.7723 36.744 17.664 36.8354 17.573L40.0555 14.343C43.3755 11.034 43.3755 5.63699 40.0555 2.31899C39.964 2.22793 39.8914 2.1197 39.8419 2.00052C39.7924 1.88134 39.7669 1.75355 39.7669 1.62449C39.7669 1.49543 39.7924 1.36764 39.8419 1.24846C39.8914 1.12927 39.964 1.02105 40.0555 0.929989C40.2415 0.745081 40.4931 0.641296 40.7555 0.641296C41.0178 0.641296 41.2694 0.745081 41.4554 0.929989C45.5314 5.01699 45.5304 11.655 41.4544 15.742Z" fill="#A93CC9"/>
<path id="Vector_2" d="M36.0578 11.724H36.0278L34.6388 11.704L33.8418 12.836C33.6305 13.1436 33.3354 13.3842 32.9916 13.5291C32.6477 13.6741 32.2695 13.7175 31.9018 13.654C31.5361 13.5962 31.1939 13.4374 30.9137 13.1955C30.6334 12.9536 30.4263 12.6383 30.3158 12.285L29.9018 10.955L28.5818 10.542C28.2267 10.433 27.9093 10.2266 27.6657 9.94625C27.4221 9.66588 27.2621 9.3228 27.2038 8.95599C27.1459 8.58863 27.1917 8.21241 27.3361 7.86967C27.4804 7.52693 27.7175 7.23128 28.0208 7.01599L29.1538 6.21799L29.1338 4.82999C29.1294 4.45883 29.2297 4.09394 29.4229 3.77705C29.6162 3.46016 29.8948 3.20404 30.2268 3.03799C30.5564 2.86899 30.927 2.79598 31.2961 2.82728C31.6653 2.85857 32.0182 2.99291 32.3148 3.21499L33.4278 4.04199L34.7378 3.59899C35.0893 3.47895 35.4673 3.45963 35.8293 3.54321C36.1912 3.6268 36.5225 3.80996 36.7858 4.07199C37.1698 4.45599 37.3768 4.95799 37.3768 5.47999C37.3768 5.69699 37.3368 5.91299 37.2688 6.11999L36.8258 7.42999L37.6528 8.54299C38.1058 9.15299 38.1748 9.96099 37.8298 10.64C37.6632 10.9666 37.4095 11.2408 37.0968 11.4321C36.784 11.6235 36.4244 11.7245 36.0578 11.724ZM22.7428 10.916C22.3085 10.479 21.7922 10.1323 21.2235 9.89562C20.6547 9.65899 20.0448 9.53716 19.4288 9.53716C18.8127 9.53716 18.2028 9.65899 17.6341 9.89562C17.0653 10.1323 16.549 10.479 16.1148 10.916C14.2928 12.728 14.2928 15.683 16.0948 17.514L0.790754 59.408C0.483621 60.2348 0.421585 61.1326 0.61209 61.9938C0.802595 62.855 1.23755 63.6429 1.86475 64.263C2.29086 64.6986 2.7995 65.0448 3.36096 65.2816C3.92241 65.5184 4.52542 65.6409 5.13475 65.642C5.66575 65.642 6.20775 65.543 6.73975 65.356L48.6238 50.043C49.4993 50.9088 50.6814 51.3936 51.9128 51.392C52.529 51.3937 53.1395 51.2735 53.7091 51.0384C54.2787 50.8033 54.7962 50.4579 55.2318 50.022C57.0538 48.192 57.0538 45.217 55.2318 43.395L22.7408 10.916H22.7428ZM23.4718 57.133C23.1335 56.5065 22.7057 55.9328 22.2018 55.43C21.4962 54.7227 20.658 54.1616 19.7352 53.7788C18.8125 53.3959 17.8233 53.1988 16.8243 53.1988C15.8252 53.1988 14.836 53.3959 13.9133 53.7788C12.9905 54.1616 12.1523 54.7227 11.4468 55.43C10.5559 56.3102 9.89989 57.3996 9.53863 58.5986C9.17737 59.7977 9.12241 61.0682 9.37875 62.294L6.06975 63.505C5.5899 63.686 5.06762 63.7227 4.56714 63.6108C4.06666 63.4989 3.60981 63.2431 3.25275 62.875C2.88982 62.5209 2.63861 62.0682 2.5302 61.5729C2.42178 61.0776 2.46091 60.5613 2.64275 60.088L8.39375 44.35C9.76097 45.5168 11.5003 46.1563 13.2978 46.153C15.2478 46.153 17.1978 45.414 18.6758 43.927C21.6398 40.963 21.6398 36.137 18.6758 33.173C17.9722 32.4614 17.1328 31.8985 16.2073 31.5178C15.2819 31.1371 14.2894 30.9464 13.2888 30.957L15.8788 23.857L42.2808 50.258L23.4708 57.132L23.4718 57.133ZM53.8328 48.634C52.8088 49.659 51.0168 49.659 49.9928 48.634L17.5128 16.145C17.26 15.8932 17.0594 15.594 16.9226 15.2645C16.7857 14.935 16.7153 14.5818 16.7153 14.225C16.7153 13.8682 16.7857 13.515 16.9226 13.1855C17.0594 12.856 17.26 12.5568 17.5128 12.305C17.7648 12.0527 18.0641 11.8526 18.3936 11.716C18.723 11.5795 19.0761 11.5092 19.4328 11.5092C19.7894 11.5092 20.1425 11.5795 20.472 11.716C20.8014 11.8526 21.1007 12.0527 21.3528 12.305L53.8328 44.784C54.0856 45.0368 54.2862 45.3369 54.423 45.6672C54.5598 45.9975 54.6303 46.3515 54.6303 46.709C54.6303 47.0665 54.5598 47.4205 54.423 47.7508C54.2862 48.0811 54.0856 48.3812 53.8328 48.634Z" fill="#A93CC9"/>
<path id="Vector_3" d="M26.2078 51.399C26.7819 51.4005 27.3506 51.2882 27.881 51.0685C28.4114 50.8487 28.893 50.526 29.2978 50.119C30.1162 49.2985 30.5758 48.1869 30.5758 47.028C30.5758 45.8691 30.1162 44.7575 29.2978 43.937C28.4777 43.1187 27.3664 42.6592 26.2078 42.6592C25.0493 42.6592 23.938 43.1187 23.1178 43.937C22.2994 44.7575 21.8398 45.8691 21.8398 47.028C21.8398 48.1869 22.2994 49.2985 23.1178 50.119C23.5227 50.5261 24.0042 50.8488 24.5346 51.0685C25.065 51.2882 25.6337 51.4006 26.2078 51.399ZM65.2078 24.686C61.1248 20.602 54.4838 20.602 50.3998 24.686L47.1778 27.908C47.0864 27.9995 47.0138 28.108 46.9643 28.2276C46.9148 28.3471 46.8893 28.4751 46.8893 28.6045C46.8893 28.7338 46.9148 28.8619 46.9643 28.9814C47.0138 29.1009 47.0864 29.2095 47.1778 29.301C47.2693 29.3925 47.3779 29.465 47.4974 29.5145C47.6169 29.564 47.745 29.5895 47.8743 29.5895C48.0037 29.5895 48.1318 29.564 48.2513 29.5145C48.3708 29.465 48.4794 29.3925 48.5708 29.301L51.7928 26.078C55.1068 22.764 60.5028 22.764 63.8158 26.078C63.9072 26.1695 64.0158 26.242 64.1352 26.2916C64.2546 26.3411 64.3827 26.3666 64.512 26.3666C64.6413 26.3667 64.7693 26.3413 64.8888 26.2918C65.0083 26.2424 65.1169 26.1699 65.2083 26.0785C65.2998 25.9871 65.3724 25.8786 65.4219 25.7591C65.4714 25.6397 65.4969 25.5117 65.497 25.3823C65.497 25.253 65.4716 25.125 65.4222 25.0055C65.3727 24.886 65.2992 24.7775 65.2078 24.686ZM63.1998 36.009C62.8548 36.689 62.1458 37.073 61.3978 37.092L60.0178 37.072L59.2108 38.205C59.0311 38.4671 58.7899 38.6813 58.5085 38.8289C58.227 38.9765 57.9137 39.0531 57.5958 39.052C57.4878 39.052 57.3798 39.042 57.2808 39.022C56.913 38.9676 56.5681 38.8103 56.2858 38.5683C56.0036 38.3262 55.7956 38.0092 55.6858 37.654L55.2818 36.324L53.9518 35.92C53.5963 35.809 53.2789 35.6008 53.0354 35.319C52.7919 35.0372 52.632 34.6929 52.5738 34.325C52.5152 33.959 52.5607 33.584 52.7052 33.2427C52.8497 32.9014 53.0873 32.6076 53.3908 32.395L54.5238 31.587L54.5038 30.209C54.5006 29.8371 54.601 29.4717 54.7939 29.1538C54.9869 28.8359 55.2646 28.5781 55.5959 28.4093C55.9273 28.2405 56.2992 28.1674 56.6697 28.1983C57.0403 28.2291 57.395 28.3627 57.6938 28.584L58.7978 29.411L60.1178 28.968C60.4693 28.8484 60.8472 28.8292 61.209 28.9126C61.5708 28.996 61.9021 29.1786 62.1658 29.44C62.6978 29.982 62.8848 30.77 62.6388 31.489L62.1948 32.799L63.0228 33.911C63.4758 34.522 63.5448 35.33 63.1998 36.009ZM61.3678 12.374C61.2021 12.7014 60.9484 12.9762 60.6352 13.1675C60.3221 13.3588 59.9618 13.459 59.5948 13.457H59.5648L58.1868 13.447L57.3798 14.58C57.1979 14.8392 56.9561 15.0507 56.6749 15.1964C56.3937 15.3421 56.0815 15.4178 55.7648 15.417C55.6558 15.417 55.5578 15.407 55.4488 15.397C55.0808 15.3387 54.7365 15.1787 54.4546 14.935C54.1728 14.6913 53.9647 14.3737 53.8538 14.018L53.7748 13.752L43.4048 24.132C43.2176 24.3142 42.9671 24.4167 42.7058 24.418C42.4498 24.418 42.2038 24.319 42.0058 24.132C41.8215 23.946 41.7181 23.6948 41.7181 23.433C41.7181 23.1712 41.8215 22.92 42.0058 22.734L52.3858 12.364L52.1208 12.285C51.7652 12.1756 51.4478 11.9677 51.2054 11.6854C50.963 11.4032 50.8054 11.0581 50.7508 10.69C50.69 10.3238 50.7346 9.94792 50.8795 9.60617C51.0243 9.26441 51.2634 8.97093 51.5688 8.75999L52.6918 7.952L52.6818 6.57299C52.6741 6.20108 52.7717 5.83457 52.9633 5.51573C53.1549 5.19689 53.4328 4.93872 53.7648 4.77099C54.0963 4.60193 54.4684 4.52892 54.8391 4.56019C55.2098 4.59147 55.5644 4.7258 55.8628 4.94799L56.9658 5.77499L58.2858 5.33199C58.6357 5.21196 59.0123 5.19266 59.3727 5.27629C59.733 5.35992 60.0626 5.54312 60.3238 5.80499C60.7078 6.18899 60.9148 6.69099 60.9148 7.21299C60.9148 7.42999 60.8748 7.646 60.8068 7.853L60.3638 9.17299L61.1908 10.276C61.6438 10.886 61.7128 11.694 61.3678 12.374Z" fill="#A93CC9"/>
</g>
</svg>
