<svg width="25" height="25" viewBox="0 0 25 25" fill="none" xmlns="http://www.w3.org/2000/svg">
<g id="Huge-icon">
<path id="Vector" d="M12.125 2.98795V4.98795M21.125 5.98795L19.625 7.48795M3.12497 5.98795L4.62497 7.48795M12.125 22.9879C15.7292 22.9879 18.9384 20.6424 21.0022 18.6668C22.4993 17.2337 22.4993 14.7421 21.0022 13.3091C18.9384 11.3335 15.7292 8.98795 12.125 8.98795C8.5208 8.98795 5.31161 11.3335 3.24781 13.3091C1.75073 14.7421 1.75073 17.2337 3.24781 18.6668C5.31161 20.6424 8.5208 22.9879 12.125 22.9879ZM15.125 15.9879C15.125 17.6448 13.7818 18.9879 12.125 18.9879C10.4681 18.9879 9.12497 17.6448 9.12497 15.9879C9.12497 14.3311 10.4681 12.9879 12.125 12.9879C13.7818 12.9879 15.125 14.3311 15.125 15.9879Z" stroke="#2C2434" stroke-width="1.5" stroke-linecap="round"/>
</g>
</svg>
