<svg width="34" height="34" viewBox="0 0 34 34" fill="none" xmlns="http://www.w3.org/2000/svg">
<path d="M23.2377 33.5V20.7297H27.5136L28.1536 15.7653H23.2377V12.5957C23.2377 11.1583 23.6367 10.1788 25.6979 10.1788L28.3269 10.1776V5.73739C27.872 5.677 26.3117 5.54178 24.4961 5.54178C20.7057 5.54178 18.111 7.8553 18.111 12.1041V15.7653H13.8241V20.7297H18.111V33.5H2.33333C1.32082 33.5 0.5 32.6792 0.5 31.6667V2.33333C0.5 1.32082 1.32082 0.5 2.33333 0.5H31.6667C32.6792 0.5 33.5 1.32082 33.5 2.33333V31.6667C33.5 32.6792 32.6792 33.5 31.6667 33.5H23.2377Z" fill="#F8F8F8"/>
</svg>
