<svg width="56" height="57" viewBox="0 0 56 57" fill="none" xmlns="http://www.w3.org/2000/svg">
<circle cx="28" cy="28.0615" r="28" fill="#A93CC9"/>
<path d="M19 23.0615H22M22 23.0615C22 24.7184 23.3431 26.0615 25 26.0615C26.6569 26.0615 28 24.7184 28 23.0615C28 21.4047 26.6569 20.0615 25 20.0615C23.3431 20.0615 22 21.4047 22 23.0615ZM19 33.0615H25M34 33.0615H37M34 33.0615C34 34.7184 32.6569 36.0615 31 36.0615C29.3431 36.0615 28 34.7184 28 33.0615C28 31.4047 29.3431 30.0615 31 30.0615C32.6569 30.0615 34 31.4047 34 33.0615ZM31 23.0615H37" stroke="white" stroke-width="1.5" stroke-linecap="round"/>
</svg>
