<svg width="41" height="40" viewBox="0 0 41 40" fill="none" xmlns="http://www.w3.org/2000/svg">
<g id="Group 97">
<path id="Rectangle 108" d="M0.791992 20C0.791992 8.95431 9.7463 0 20.792 0C31.8377 0 40.792 8.95431 40.792 20C40.792 31.0457 31.8377 40 20.792 40C9.7463 40 0.791992 31.0457 0.791992 20Z" fill="#2C2434"/>
<g id="XMLID_1_">
<path id="Vector" d="M18.8896 28.6804H22.5528V19.4986H25.112L25.3826 16.4282H22.5528C22.5528 16.4282 22.5528 15.2805 22.5528 14.681C22.5528 13.9573 22.6991 13.6722 23.401 13.6722C23.964 13.6722 25.3826 13.6722 25.3826 13.6722V10.4775C25.3826 10.4775 23.2913 10.4775 22.8453 10.4775C20.118 10.4775 18.8896 11.6764 18.8896 13.9792C18.8896 15.9823 18.8896 16.4282 18.8896 16.4282H16.9811V19.5424H18.8896V28.6804Z" fill="white"/>
</g>
</g>
</svg>
