<svg width="25" height="24" viewBox="0 0 25 24" fill="none" xmlns="http://www.w3.org/2000/svg">
<path d="M24.3099 12.2803C24.3099 19.1303 19.6199 24.0003 12.6899 24.0003C9.50734 24.0003 6.4551 22.736 4.20466 20.4856C1.95422 18.2351 0.689941 15.1829 0.689941 12.0003C0.689941 8.8177 1.95422 5.76545 4.20466 3.51502C6.4551 1.26458 9.50734 0.000298355 12.6899 0.000298355C15.6612 -0.0210458 18.5265 1.10355 20.6899 3.1403L17.4999 6.2803C13.2299 2.1603 5.28994 5.2803 5.28994 12.0003C5.27128 13.9904 6.04331 15.9065 7.43644 17.3278C8.82957 18.749 10.7299 19.5592 12.7199 19.5803C17.4799 19.5803 19.2599 16.1703 19.5399 14.4003H12.6899V10.2803H24.1199C24.2469 10.9394 24.3105 11.6091 24.3099 12.2803Z" fill="#A93CC9"/>
</svg>
