<svg width="25" height="25" viewBox="0 0 25 25" fill="none" xmlns="http://www.w3.org/2000/svg">
<g id="google (1)" clip-path="url(#clip0_908_104)">
<path id="Vector" d="M24.4875 12.5097C24.4875 11.5035 24.4059 10.7693 24.2292 10.0078H12.7393V14.5493H19.4836C19.3477 15.678 18.6134 17.3777 16.9817 18.5198L16.9588 18.6719L20.5917 21.4862L20.8434 21.5113C23.1549 19.3765 24.4875 16.2355 24.4875 12.5097Z" fill="#4285F4"/>
<path id="Vector_2" d="M12.7391 24.4756C16.0433 24.4756 18.8171 23.3877 20.8432 21.5113L16.9815 18.5198C15.9481 19.2405 14.5611 19.7436 12.7391 19.7436C9.50291 19.7436 6.75622 17.6088 5.77711 14.6582L5.63359 14.6704L1.85604 17.5938L1.80664 17.7312C3.81906 21.7288 7.95273 24.4756 12.7391 24.4756Z" fill="#34A853"/>
<path id="Vector_3" d="M5.77678 14.6582C5.51843 13.8967 5.36891 13.0808 5.36891 12.2378C5.36891 11.3947 5.51843 10.5789 5.76318 9.81743L5.75634 9.65526L1.93145 6.68481L1.80631 6.74434C0.976896 8.40326 0.500977 10.2662 0.500977 12.2378C0.500977 14.2094 0.976896 16.0723 1.80631 17.7312L5.77678 14.6582Z" fill="#FBBC05"/>
<path id="Vector_4" d="M12.7391 4.73192C15.0371 4.73192 16.5871 5.72453 17.471 6.55404L20.9248 3.18183C18.8036 1.21019 16.0433 0 12.7391 0C7.95273 0 3.81906 2.74669 1.80664 6.74434L5.76351 9.81743C6.75622 6.86676 9.50291 4.73192 12.7391 4.73192Z" fill="#EB4335"/>
</g>
<defs>
<clipPath id="clip0_908_104">
<rect width="24" height="24.56" fill="white" transform="translate(0.5)"/>
</clipPath>
</defs>
</svg>
