<svg width="17" height="18" viewBox="0 0 17 18" fill="none" xmlns="http://www.w3.org/2000/svg">
<path fill-rule="evenodd" clip-rule="evenodd" d="M16.8334 8.99398C16.8334 13.5964 13.1025 17.3273 8.50008 17.3273C3.89771 17.3273 0.166748 13.5964 0.166748 8.99398C0.166748 4.3916 3.89771 0.660645 8.50008 0.660645C13.1025 0.660645 16.8334 4.3916 16.8334 8.99398ZM8.50008 5.45231C7.92478 5.45231 7.45842 5.91868 7.45842 6.49398C7.45842 6.83916 7.17859 7.11898 6.83342 7.11898C6.48824 7.11898 6.20842 6.83916 6.20842 6.49398C6.20842 5.22833 7.23443 4.20231 8.50008 4.20231C9.76573 4.20231 10.7917 5.22833 10.7917 6.49398C10.7917 6.94926 10.6583 7.37529 10.4283 7.73284C10.2842 7.95679 10.1157 8.1706 9.96033 8.36367L9.87654 8.46752C9.74764 8.62706 9.62932 8.77351 9.51998 8.92379C9.25032 9.29439 9.12508 9.57289 9.12508 9.82731V10.244C9.12508 10.5892 8.84526 10.869 8.50008 10.869C8.1549 10.869 7.87508 10.5892 7.87508 10.244V9.82731C7.87508 9.16126 8.20209 8.61046 8.50922 8.18835C8.63899 8.01 8.78119 7.83409 8.9105 7.67414L8.98645 7.58005C9.14078 7.38825 9.27215 7.21952 9.37708 7.05644C9.48125 6.89455 9.54175 6.70228 9.54175 6.49398C9.54175 5.91868 9.07538 5.45231 8.50008 5.45231ZM9.12508 12.3273C9.12508 11.9821 8.84526 11.7023 8.50008 11.7023C8.1549 11.7023 7.87508 11.9821 7.87508 12.3273V13.1606C7.87508 13.5058 8.1549 13.7856 8.50008 13.7856C8.84526 13.7856 9.12508 13.5058 9.12508 13.1606V12.3273Z" fill="#6C6672"/>
</svg>
