<svg width="38" height="38" viewBox="0 0 38 38" fill="none" xmlns="http://www.w3.org/2000/svg">
<path d="M19.0018 13.4998C15.9633 13.4998 13.5018 15.9622 13.5018 18.9998C13.5018 22.0382 15.9642 24.4998 19.0018 24.4998C22.0402 24.4998 24.5018 22.0375 24.5018 18.9998C24.5018 15.9615 22.0395 13.4998 19.0018 13.4998ZM19.0018 9.83317C24.0626 9.83317 28.1685 13.9345 28.1685 18.9998C28.1685 24.0608 24.0671 28.1665 19.0018 28.1665C13.9409 28.1665 9.83512 24.0652 9.83512 18.9998C9.83512 13.939 13.9365 9.83317 19.0018 9.83317ZM30.9185 9.37328C30.9185 10.6385 29.8904 11.665 28.6268 11.665C27.3616 11.665 26.3352 10.6369 26.3352 9.37328C26.3352 8.10965 27.3631 7.08317 28.6268 7.08317C29.8887 7.08158 30.9185 8.10965 30.9185 9.37328ZM19.0018 4.33317C14.4652 4.33317 13.7258 4.34518 11.6158 4.43914C10.1783 4.50662 9.21463 4.69997 8.31929 5.04757C7.52362 5.35615 6.94966 5.72463 6.33811 6.33618C5.72422 6.95007 5.3564 7.52249 5.04906 8.31853C4.70065 9.21592 4.50737 10.178 4.44109 11.6136C4.34622 13.6377 4.33512 14.3451 4.33512 18.9998C4.33512 23.5364 4.34713 24.2758 4.44107 26.3856C4.50859 27.8226 4.70219 28.7876 5.04895 29.6808C5.35834 30.4776 5.72758 31.0529 6.33617 31.6616C6.95248 32.277 7.52661 32.6461 8.31509 32.9504C9.22134 33.3008 10.1844 33.4944 11.6155 33.5605C13.6397 33.6553 14.3471 33.6665 19.0018 33.6665C23.5384 33.6665 24.2778 33.6544 26.3876 33.5605C27.8214 33.4933 28.7872 33.2991 29.6828 32.9526C30.4774 32.6441 31.0545 32.2735 31.6636 31.6654C32.2799 31.0481 32.6482 30.4754 32.9529 29.6851C33.3024 28.7821 33.4963 27.8178 33.5625 26.3862C33.6573 24.362 33.6685 23.6545 33.6685 18.9998C33.6685 14.4633 33.6564 13.7239 33.5625 11.614C33.4951 10.1798 33.3009 9.21257 32.954 8.31733C32.6462 7.52387 32.2764 6.94815 31.6654 6.33618C31.0505 5.72128 30.4796 5.35421 29.683 5.04711C28.7863 4.69899 27.8227 4.50543 26.388 4.43916C24.364 4.34426 23.6565 4.33317 19.0018 4.33317ZM19.0018 0.666504C23.9823 0.666504 24.6041 0.684837 26.5597 0.776504C28.5106 0.866649 29.8414 1.17525 31.0102 1.629C32.2185 2.09498 33.2391 2.72442 34.2581 3.74344C35.2756 4.76248 35.9052 5.78609 36.3727 6.9915C36.8248 8.15873 37.1335 9.49094 37.2252 11.4419C37.3122 13.3975 37.3352 14.0193 37.3352 18.9998C37.3352 23.9805 37.3168 24.6021 37.2252 26.5578C37.135 28.5088 36.8248 29.8394 36.3727 31.0082C35.9066 32.2167 35.2756 33.2371 34.2581 34.2563C33.2391 35.2738 32.2139 35.9032 31.0102 36.3707C29.8414 36.823 28.5106 37.1315 26.5597 37.2232C24.6041 37.3103 23.9823 37.3332 19.0018 37.3332C14.0212 37.3332 13.3994 37.3148 11.4439 37.2232C9.4929 37.133 8.16373 36.823 6.99346 36.3707C5.7865 35.9046 4.76442 35.2738 3.7454 34.2563C2.72637 33.2371 2.09846 32.2121 1.63096 31.0082C1.17721 29.8394 0.870124 28.5088 0.778457 26.5578C0.691374 24.6021 0.668457 23.9805 0.668457 18.9998C0.668457 14.0193 0.686791 13.3975 0.778457 11.4419C0.868584 9.48942 1.17721 8.16025 1.63096 6.9915C2.09692 5.78457 2.72637 4.76248 3.7454 3.74344C4.76442 2.72442 5.78804 2.0965 6.99346 1.629C8.16221 1.17525 9.49137 0.86817 11.4439 0.776504C13.3994 0.68942 14.0212 0.666504 19.0018 0.666504Z" fill="#F8F8F8"/>
</svg>
