<svg width="40" height="41" viewBox="0 0 40 41" fill="none" xmlns="http://www.w3.org/2000/svg">
<path d="M0 20.0745C0 9.02877 8.9543 0.0744629 20 0.0744629C31.0457 0.0744629 40 9.02877 40 20.0745C40 31.1202 31.0457 40.0745 20 40.0745C8.9543 40.0745 0 31.1202 0 20.0745Z" fill="#2C2434"/>
<path d="M25.34 13.5345C25.1027 13.5345 24.8707 13.6048 24.6733 13.7367C24.476 13.8686 24.3222 14.056 24.2313 14.2752C24.1405 14.4945 24.1168 14.7358 24.1631 14.9686C24.2094 15.2013 24.3236 15.4152 24.4915 15.583C24.6593 15.7508 24.8731 15.8651 25.1059 15.9114C25.3387 15.9577 25.5799 15.9339 25.7992 15.8431C26.0185 15.7523 26.2059 15.5985 26.3378 15.4011C26.4696 15.2038 26.54 14.9718 26.54 14.7345C26.54 14.4162 26.4136 14.111 26.1885 13.8859C25.9635 13.6609 25.6583 13.5345 25.34 13.5345ZM29.94 15.9545C29.9206 15.1248 29.7652 14.3039 29.48 13.5245C29.2257 12.8576 28.83 12.2537 28.32 11.7545C27.8248 11.2419 27.2196 10.8486 26.55 10.6045C25.7727 10.3106 24.9508 10.1517 24.12 10.1345C23.06 10.0745 22.72 10.0745 20 10.0745C17.28 10.0745 16.94 10.0745 15.88 10.1345C15.0492 10.1517 14.2273 10.3106 13.45 10.6045C12.7817 10.8511 12.1769 11.244 11.68 11.7545C11.1674 12.2496 10.7742 12.8549 10.53 13.5245C10.2362 14.3018 10.0772 15.1236 10.06 15.9545C10 17.0145 10 17.3545 10 20.0745C10 22.7945 10 23.1345 10.06 24.1945C10.0772 25.0253 10.2362 25.8471 10.53 26.6245C10.7742 27.294 11.1674 27.8993 11.68 28.3945C12.1769 28.9049 12.7817 29.2978 13.45 29.5445C14.2273 29.8383 15.0492 29.9973 15.88 30.0145C16.94 30.0745 17.28 30.0745 20 30.0745C22.72 30.0745 23.06 30.0745 24.12 30.0145C24.9508 29.9973 25.7727 29.8383 26.55 29.5445C27.2196 29.3003 27.8248 28.907 28.32 28.3945C28.8322 27.897 29.2283 27.2927 29.48 26.6245C29.7652 25.8451 29.9206 25.0242 29.94 24.1945C29.94 23.1345 30 22.7945 30 20.0745C30 17.3545 30 17.0145 29.94 15.9545ZM28.14 24.0745C28.1327 24.7092 28.0178 25.3382 27.8 25.9345C27.6403 26.3697 27.3839 26.7629 27.05 27.0845C26.7256 27.415 26.3332 27.6709 25.9 27.8345C25.3037 28.0522 24.6748 28.1672 24.04 28.1745C23.04 28.2245 22.67 28.2345 20.04 28.2345C17.41 28.2345 17.04 28.2345 16.04 28.1745C15.3809 28.1868 14.7246 28.0853 14.1 27.8745C13.6858 27.7025 13.3114 27.4472 13 27.1245C12.6681 26.8032 12.4148 26.4097 12.26 25.9745C12.0159 25.3696 11.8804 24.7264 11.86 24.0745C11.86 23.0745 11.8 22.7045 11.8 20.0745C11.8 17.4445 11.8 17.0745 11.86 16.0745C11.8645 15.4255 11.983 14.7824 12.21 14.1745C12.386 13.7524 12.6563 13.3761 13 13.0745C13.3038 12.7306 13.6793 12.4576 14.1 12.2745C14.7096 12.0545 15.352 11.9395 16 11.9345C17 11.9345 17.37 11.8745 20 11.8745C22.63 11.8745 23 11.8745 24 11.9345C24.6348 11.9417 25.2637 12.0567 25.86 12.2745C26.3144 12.4431 26.7223 12.7173 27.05 13.0745C27.3777 13.3816 27.6338 13.7572 27.8 14.1745C28.0223 14.7834 28.1373 15.4262 28.14 16.0745C28.19 17.0745 28.2 17.4445 28.2 20.0745C28.2 22.7045 28.19 23.0745 28.14 24.0745ZM20 14.9445C18.9858 14.9464 17.995 15.249 17.1527 15.8139C16.3103 16.3788 15.6544 17.1807 15.2676 18.1182C14.8809 19.0558 14.7807 20.0869 14.9798 21.0814C15.1789 22.0759 15.6682 22.989 16.3861 23.7054C17.1039 24.4219 18.018 24.9095 19.0129 25.1066C20.0077 25.3037 21.0387 25.2016 21.9755 24.813C22.9123 24.4244 23.7129 23.7669 24.2761 22.9235C24.8394 22.0801 25.14 21.0887 25.14 20.0745C25.1413 19.3996 25.0092 18.7311 24.7512 18.1074C24.4933 17.4838 24.1146 16.9173 23.6369 16.4405C23.1592 15.9638 22.5919 15.5861 21.9678 15.3294C21.3436 15.0726 20.6749 14.9418 20 14.9445ZM20 23.4045C19.3414 23.4045 18.6976 23.2092 18.15 22.8433C17.6023 22.4774 17.1755 21.9573 16.9235 21.3488C16.6714 20.7403 16.6055 20.0708 16.734 19.4248C16.8625 18.7789 17.1796 18.1855 17.6453 17.7198C18.111 17.2541 18.7044 16.9369 19.3503 16.8084C19.9963 16.68 20.6659 16.7459 21.2743 16.9979C21.8828 17.25 22.4029 17.6768 22.7688 18.2244C23.1347 18.772 23.33 19.4159 23.33 20.0745C23.33 20.5118 23.2439 20.9448 23.0765 21.3488C22.9092 21.7528 22.6639 22.1199 22.3547 22.4291C22.0454 22.7383 21.6784 22.9836 21.2743 23.151C20.8703 23.3183 20.4373 23.4045 20 23.4045Z" fill="white"/>
</svg>
