<svg width="38" height="38" viewBox="0 0 38 38" fill="none" xmlns="http://www.w3.org/2000/svg">
<g clip-path="url(#clip0_2070_39)">
<path d="M38 37.159V23.1085C38 15.5798 33.9815 12.0767 28.6235 12.0767C24.2998 12.0767 22.3618 14.4552 21.2824 16.1249V12.6526H13.1361C13.2442 14.9528 13.1361 37.159 13.1361 37.159H21.2824V23.4731C21.2824 22.7428 21.3346 22.0101 21.5508 21.4876C22.1386 20.0234 23.4793 18.5082 25.7284 18.5082C28.6769 18.5082 29.8549 20.7549 29.8549 24.049V37.1602L38 37.159ZM4.55406 9.30742C7.39338 9.30742 9.16394 7.42404 9.16394 5.07161C9.11169 2.66811 7.39456 0.839355 4.60869 0.839355C1.82281 0.839355 0 2.66692 0 5.07161C0 7.42404 1.76819 9.30742 4.503 9.30742H4.55406ZM8.62719 37.159V12.6526H0.482125V37.159H8.62719Z" fill="white"/>
</g>
<defs>
<clipPath id="clip0_2070_39">
<rect width="38" height="38" fill="white"/>
</clipPath>
</defs>
</svg>
