<svg width="41" height="40" viewBox="0 0 41 40" fill="none" xmlns="http://www.w3.org/2000/svg">
<g id="Group 99">
<path id="Rectangle 114" d="M0.791992 20C0.791992 8.95431 9.7463 0 20.792 0C31.8377 0 40.792 8.95431 40.792 20C40.792 31.0457 31.8377 40 20.792 40C9.7463 40 0.791992 31.0457 0.791992 20Z" fill="#2C2434"/>
<g id="XMLID_1_">
<g id="XMLID_3_">
<g id="XMLID_5_">
<path id="Vector" d="M16.5886 17.4111H13.4737V27.4797H16.5886V17.4111Z" fill="white"/>
</g>
<g id="XMLID_4_">
<path id="Vector_2" d="M15.0174 16.0973C16.0338 16.0973 16.86 15.2637 16.86 14.24C16.86 13.2164 16.0338 12.3828 15.0174 12.3828C14.0011 12.3828 13.1748 13.2164 13.1748 14.24C13.1748 15.2637 14.0011 16.0973 15.0174 16.0973Z" fill="white"/>
</g>
</g>
<g id="XMLID_2_">
<path id="Vector_3" d="M21.5755 22.2009C21.5755 20.7824 22.2263 19.9415 23.4767 19.9415C24.6246 19.9415 25.173 20.7532 25.173 22.2009C25.173 23.6487 25.173 27.4875 25.173 27.4875H28.2733C28.2733 27.4875 28.2733 23.8096 28.2733 21.1115C28.2733 18.4133 26.7451 17.1118 24.61 17.1118C22.4749 17.1118 21.5755 18.7789 21.5755 18.7789V17.4189H18.585V27.4875H21.5755C21.5755 27.4875 21.5755 23.7511 21.5755 22.2009Z" fill="white"/>
</g>
</g>
</g>
</svg>
