<?xml version="1.0" standalone="no"?>
<!DOCTYPE svg PUBLIC "-//W3C//DTD SVG 20010904//EN"
 "http://www.w3.org/TR/2001/REC-SVG-20010904/DTD/svg10.dtd">
<svg version="1.0" xmlns="http://www.w3.org/2000/svg"
 width="512.000000pt" height="512.000000pt" viewBox="0 0 512.000000 512.000000"
 preserveAspectRatio="xMidYMid meet">

<g transform="translate(0.000000,512.000000) scale(0.100000,-0.100000)"
fill="#808080" stroke="none">
<path d="M3295 4946 c-94 -41 -124 -168 -58 -247 51 -60 41 -59 635 -59 l543
0 -1162 -1162 c-1264 -1265 -1186 -1180 -1168 -1275 9 -49 69 -109 118 -118
95 -18 10 -96 1274 1168 l1163 1161 2 -556 c3 -544 3 -557 24 -584 39 -53 71
-69 134 -69 63 0 95 16 134 69 21 27 21 35 21 806 0 771 0 779 -21 806 -11 15
-33 37 -48 48 -27 21 -37 21 -794 23 -622 2 -773 0 -797 -11z"/>
<path d="M521 4304 c-169 -45 -301 -180 -346 -351 -23 -86 -23 -3340 0 -3426
45 -173 178 -307 350 -352 52 -13 260 -15 1715 -15 1805 0 1705 -3 1822 56
116 59 221 197 247 326 8 37 11 364 9 1065 -3 1004 -3 1012 -24 1039 -39 53
-71 69 -134 69 -63 0 -95 -16 -134 -69 -21 -27 -21 -37 -26 -1046 -5 -1009 -5
-1019 -26 -1046 -11 -15 -33 -37 -48 -48 l-27 -21 -1659 0 -1659 0 -27 21
c-15 11 -37 33 -48 48 l-21 27 0 1659 0 1659 21 27 c11 15 33 37 48 48 27 21
37 21 1046 26 1009 5 1019 5 1046 26 53 39 69 71 69 134 0 63 -16 95 -69 134
-27 21 -34 21 -1049 23 -868 2 -1030 0 -1076 -13z"/>
</g>
</svg>
