<svg width="21" height="21" viewBox="0 0 21 21" fill="none" xmlns="http://www.w3.org/2000/svg">
<path d="M7.79353 18.488H16.3333M10.3203 5.41446C10.3203 5.41446 10.3203 6.77665 11.6824 8.13884C13.0446 9.50103 14.4068 9.50103 14.4068 9.50103M4.93294 15.9781L7.79353 15.5694C8.20617 15.5105 8.58855 15.3193 8.88328 15.0246L15.769 8.13884C16.5213 7.38652 16.5213 6.16678 15.769 5.41446L14.4068 4.05227C13.6545 3.29996 12.4348 3.29996 11.6825 4.05227L4.79672 10.938C4.50198 11.2327 4.31079 11.6151 4.25185 12.0278L3.84319 14.8883C3.75238 15.524 4.29725 16.0689 4.93294 15.9781Z" stroke="#2C2434" stroke-width="1.5" stroke-linecap="round"/>
</svg>
