<svg width="38" height="38" viewBox="0 0 38 38" fill="none" xmlns="http://www.w3.org/2000/svg">
<path d="M21.5148 0.83961C12.446 -0.410246 3.84533 5.22243 1.36448 14.0362C-1.11636 22.85 3.28301 32.1434 11.6716 35.8095C11.5615 34.4013 11.6618 32.9845 11.9692 31.606C12.3076 30.0684 14.3455 21.5907 14.3455 21.5907C13.9394 20.6816 13.7363 19.6947 13.7504 18.699C13.7504 15.9765 15.3214 13.9452 17.2761 13.9452C17.9865 13.9347 18.6665 14.2337 19.1389 14.7645C19.6114 15.2953 19.8297 16.0055 19.737 16.71C19.737 18.3604 18.6766 20.8572 18.1251 23.1987C17.9025 24.0701 18.1073 24.9954 18.6768 25.6915C19.2462 26.3874 20.1126 26.7712 21.0106 26.7253C24.4897 26.7253 26.8237 22.2678 26.8237 17.0063C26.8237 12.9719 24.1513 9.95326 19.2279 9.95326C16.8476 9.86124 14.5338 10.7491 12.8257 12.4098C11.1177 14.0705 10.1649 16.3589 10.1894 18.7413C10.137 20.0489 10.5587 21.3313 11.3769 22.3525C11.6916 22.5866 11.813 23.0011 11.6744 23.3681C11.5898 23.7066 11.3769 24.5107 11.2922 24.8069C11.2566 25.0095 11.1269 25.1833 10.9428 25.275C10.7586 25.3668 10.5419 25.3659 10.3586 25.2724C7.82013 24.2567 6.62419 21.4637 6.62419 18.2759C6.62419 13.0566 10.9961 6.80762 19.7399 6.80762C26.6996 6.80762 31.3255 11.8999 31.3255 17.3447C31.3255 24.5107 27.3358 29.8992 21.4379 29.8992C19.6464 29.956 17.95 29.0944 16.9391 27.6139C16.9391 27.6139 15.8785 31.8599 15.6697 32.6639C15.2435 34.0513 14.6143 35.368 13.8026 36.5712C15.4941 37.0844 17.253 37.3412 19.0207 37.3332C23.8832 37.3363 28.5476 35.4052 31.9853 31.9652C35.423 28.5253 37.3515 23.8589 37.346 18.9953C37.3406 9.83878 30.5835 2.08947 21.5148 0.83961Z" fill="#F8F8F8"/>
</svg>
