<svg width="34" height="38" viewBox="0 0 34 38" fill="none" xmlns="http://www.w3.org/2000/svg">
<path d="M24.3333 12.1163V25.4165C24.3333 31.998 18.9981 37.3332 12.4167 37.3332C5.83528 37.3332 0.5 31.998 0.5 25.4165C0.5 18.835 5.83528 13.4998 12.4167 13.4998C13.3632 13.4998 14.2839 13.6102 15.1667 13.8187V19.6173C14.3332 19.2213 13.4008 18.9998 12.4167 18.9998C8.87283 18.9998 6 21.8727 6 25.4165C6 28.9603 8.87283 31.8332 12.4167 31.8332C15.9605 31.8332 18.8333 28.9603 18.8333 25.4165V0.666504H24.3333C24.3333 5.72911 28.4374 9.83317 33.5 9.83317V15.3332C30.0315 15.3332 26.8443 14.1292 24.3333 12.1163Z" fill="#F8F8F8"/>
</svg>
