<svg width="40" height="41" viewBox="0 0 40 41" fill="none" xmlns="http://www.w3.org/2000/svg">
<path d="M0 20.1011C0 9.05538 8.9543 0.101074 20 0.101074C31.0457 0.101074 40 9.05538 40 20.1011C40 31.1468 31.0457 40.1011 20 40.1011C8.9543 40.1011 0 31.1468 0 20.1011Z" fill="#2C2434"/>
<path d="M27.2 18.9411V16.1011C25.87 16.1011 24.855 15.7461 24.2 15.0561C23.5277 14.2686 23.1511 13.2713 23.135 12.2361V12.0311L20.45 11.9661V23.5011C20.3579 24.0043 20.1136 24.4672 19.7501 24.8273C19.3865 25.1873 18.9213 25.4272 18.4172 25.5144C17.913 25.6017 17.3942 25.5321 16.9309 25.3152C16.4675 25.0983 16.0818 24.7444 15.8259 24.3013C15.5701 23.8583 15.4563 23.3474 15.5 22.8376C15.5436 22.3278 15.7427 21.8437 16.0702 21.4507C16.3977 21.0576 16.8379 20.7745 17.3315 20.6395C17.825 20.5046 18.348 20.5243 18.83 20.6961V17.9461C18.549 17.9 18.2647 17.8766 17.98 17.8761C16.9555 17.8761 15.954 18.1799 15.1021 18.7491C14.2503 19.3182 13.5864 20.1272 13.1943 21.0738C12.8022 22.0203 12.6997 23.0618 12.8995 24.0666C13.0994 25.0715 13.5927 25.9944 14.3172 26.7189C15.0416 27.4433 15.9646 27.9367 16.9694 28.1365C17.9742 28.3364 19.0158 28.2338 19.9623 27.8418C20.9088 27.4497 21.7178 26.7858 22.287 25.9339C22.8562 25.0821 23.16 24.0806 23.16 23.0561C23.1594 22.8438 23.1461 22.6317 23.12 22.4211V17.8461C24.3409 18.6085 25.7614 18.9898 27.2 18.9411Z" fill="white"/>
</svg>
