<svg width="21" height="21" viewBox="0 0 21 21" fill="none" xmlns="http://www.w3.org/2000/svg">
<g clip-path="url(#clip0_349_3123)">
<path d="M16.3333 8.488L15.7367 16.2436C15.6032 17.9803 14.155 19.3213 12.4132 19.3213H8.58677C6.84498 19.3213 5.39684 17.9803 5.26326 16.2437L4.66667 8.488M18 6.82133C15.8351 5.76631 13.2614 5.15466 10.5 5.15466C7.73862 5.15466 5.16493 5.76631 3 6.82133M8.83333 5.15466V4.32133C8.83333 3.40086 9.57953 2.65466 10.5 2.65466C11.4205 2.65466 12.1667 3.40086 12.1667 4.32133V5.15466M8.83333 10.1547V15.1547M12.1667 10.1547V15.1547" stroke="#DB2C21" stroke-width="1.5" stroke-linecap="round"/>
</g>
<defs>
<clipPath id="clip0_349_3123">
<rect width="20" height="20" fill="white" transform="translate(0.5 0.988037)"/>
</clipPath>
</defs>
</svg>
