<svg width="41" height="40" viewBox="0 0 41 40" fill="none" xmlns="http://www.w3.org/2000/svg">
<g id="Group 98">
<path id="Rectangle 111" d="M0.791992 20C0.791992 8.95431 9.7463 0 20.792 0C31.8377 0 40.792 8.95431 40.792 20C40.792 31.0457 31.8377 40 20.792 40C9.7463 40 0.791992 31.0457 0.791992 20Z" fill="#2C2434"/>
<g id="XMLID_1_">
<path id="Vector" d="M13.1725 24.9005C14.6276 25.8364 16.3606 26.3775 18.2178 26.3775C24.3306 26.3775 27.7818 21.2153 27.5771 16.5795C28.2205 16.1189 28.7762 15.5339 29.2223 14.8758C28.63 15.1391 27.9939 15.3145 27.3285 15.395C28.0085 14.9855 28.5276 14.3421 28.7762 13.5743C28.1401 13.9545 27.4382 14.2251 26.685 14.3713C26.0854 13.7279 25.2299 13.333 24.2794 13.333C22.1516 13.333 20.5942 15.3145 21.0694 17.3765C18.3348 17.2376 15.9072 15.9287 14.284 13.9326C13.4212 15.4096 13.8379 17.3473 15.3003 18.3271C14.7592 18.3124 14.2547 18.1589 13.8087 17.9176C13.7721 19.4458 14.8689 20.8716 16.4483 21.186C15.9876 21.3103 15.4758 21.3396 14.964 21.2445C15.3808 22.5534 16.6018 23.5039 18.0423 23.5332C16.6677 24.6227 14.9201 25.1052 13.1725 24.9005Z" fill="white"/>
</g>
</g>
</svg>
