<svg width="38" height="30" viewBox="0 0 38 30" fill="none" xmlns="http://www.w3.org/2000/svg">
<path d="M19.4472 0.333496C20.4264 0.338886 22.8762 0.362573 25.4792 0.466835L26.4021 0.507076C29.0229 0.631156 31.6414 0.843126 32.9401 1.20525C34.6725 1.6919 36.0341 3.11191 36.4942 4.91192C37.227 7.77025 37.3187 13.3491 37.3301 14.6991L37.3317 14.9789V14.9985C37.3317 14.9985 37.3317 15.0053 37.3317 15.0183L37.3301 15.2981C37.3187 16.6481 37.227 22.227 36.4942 25.0853C36.0277 26.8919 34.666 28.312 32.9401 28.792C31.6414 29.154 29.0229 29.366 26.4021 29.4901L25.4792 29.5302C22.8762 29.6346 20.4264 29.6582 19.4472 29.6637L19.0174 29.6652H18.9984C18.9984 29.6652 18.992 29.6652 18.9793 29.6652L18.5499 29.6637C16.4775 29.6523 7.81251 29.5587 5.05662 28.792C3.32429 28.3052 1.96271 26.8853 1.50245 25.0853C0.76972 22.227 0.678127 16.6481 0.666687 15.2981V14.6991C0.678127 13.3491 0.76972 7.77025 1.50245 4.91192C1.96909 3.10524 3.33067 1.68525 5.05662 1.20525C7.81251 0.438418 16.4775 0.344899 18.5499 0.333496H19.4472ZM15.3317 8.58192V21.4152L26.3317 14.9985L15.3317 8.58192Z" fill="#F8F8F8"/>
</svg>
